<?xml version="1.0" encoding="UTF-8" standalone="no"?>
<svg
   xmlns:dc="http://purl.org/dc/elements/1.1/"
   xmlns:cc="http://creativecommons.org/ns#"
   xmlns:rdf="http://www.w3.org/1999/02/22-rdf-syntax-ns#"
   xmlns:svg="http://www.w3.org/2000/svg"
   xmlns="http://www.w3.org/2000/svg"
   id="svg2"
   xml:space="preserve"
   enable-background="new 0 0 453.543 113.386"
   viewBox="0 0 411.02301 85.041999"
   height="85.042"
   width="411.02301"
   y="0px"
   x="0px"
   version="1.1"><metadata
     id="metadata153"><rdf:RDF><cc:Work
         rdf:about=""><dc:format>image/svg+xml</dc:format><dc:type
           rdf:resource="http://purl.org/dc/dcmitype/StillImage" /><dc:title></dc:title></cc:Work></rdf:RDF></metadata><defs
     id="defs151" /><g
     transform="translate(-21.26,-7.086)"
     id="logo_text"><path
       style="fill:#3c3c3b"
       id="path5"
       d="m 134.212,68.831 c 4.667,-5.053 7.521,-11.805 7.521,-19.225 0,-15.655 -12.691,-28.347 -28.347,-28.347 -5.165,0 -7.086,0 -14.173,0 l -14.173,0 0,70.866 14.173,0 0,-7.085 0,-10.889 0,-17.459 0,-7.086 0,-14.173 14.173,0 0,10e-4 c 7.828,0 14.173,6.346 14.173,14.173 0,7.828 -6.346,14.174 -14.173,14.174 l -7.086,0 0,13.266 c 2.266,0.586 4.637,0.907 7.086,0.907 2.447,0 7.086,0 7.086,0 3.913,0 7.086,10.26 7.087,14.173 l 14.173,0 c 0,-6.5 -2.924,-19.397 -7.52,-23.296 z" /><g
       id="g7"><path
         style="fill:#3c3c3b"
         id="path9"
         d="m 180.708,77.635 c -10.051,-1.69 -17.716,-10.41 -17.716,-20.941 0,-10.531 7.666,-19.251 17.716,-20.941 l 0,-14.316 c -17.905,1.778 -31.889,16.883 -31.889,35.256 0,18.373 13.984,33.479 31.889,35.257 l 0,-14.315 z" /><path
         style="fill:#3c3c3b"
         id="path11"
         d="m 187.795,21.437 0,14.315 c 10.051,1.69 17.716,10.41 17.716,20.941 0,10.531 -7.665,19.251 -17.716,20.941 l 0,14.314 c 17.905,-1.778 31.89,-16.884 31.89,-35.257 0,-18.373 -13.984,-33.476 -31.89,-35.254 z" /></g><path
       style="fill:#3c3c3b"
       id="path13"
       d="m 269.292,21.26 -21.26,0 c -11.741,0 -21.26,9.519 -21.26,21.26 0,11.741 9.519,21.26 21.26,21.26 l 0,10e-4 c 3.914,0 7.086,3.173 7.086,7.087 0,3.913 -3.173,7.086 -7.086,7.086 l -20.024,0 -1.236,0 0,14.173 21.26,0 c 11.741,0 21.26,-9.519 21.26,-21.26 0,-11.741 -9.519,-21.26 -21.26,-21.26 -3.914,0 -7.086,-3.173 -7.086,-7.086 0,-3.914 3.173,-7.087 7.086,-7.087 l 20.024,0 0,-10e-4 1.235,0 0,-14.173 z" /><path
       style="fill:#fdc107"
       id="path15"
       d="m 306.497,38.977 c -0.625,0 -1.771,0 -1.771,0 l 0,0 -3.545,0 0,3.543 0,0 c 0,0 0,1.147 0,1.771 0,2.936 2.381,5.315 5.316,5.315 2.935,0 5.314,-2.38 5.314,-5.315 0,-2.935 -2.379,-5.314 -5.314,-5.314 z" /><path
       style="fill:#49ace2"
       id="path17"
       d="m 336.616,38.977 -3.543,0 0,0 c 0,0 -1.148,0 -1.771,0 -2.938,0 -5.316,2.38 -5.316,5.314 0,2.936 2.379,5.315 5.316,5.315 2.934,0 5.314,-2.38 5.314,-5.315 0,-0.624 0,-1.771 0,-1.771 l 0,0 0,-3.543 z" /><path
       style="fill:#e83d6a"
       id="path19"
       d="m 336.616,69.095 c 0,-2.936 -2.381,-5.315 -5.316,-5.315 -2.935,0 -5.314,2.38 -5.314,5.315 0,2.935 2.379,5.315 5.314,5.315 0.625,0 1.771,-10e-4 1.771,-10e-4 l 0,0 3.545,0 0,-3.543 0,0 c 0,0 0,-1.147 0,-1.771 z" /><path
       style="fill:#8abd24"
       id="path21"
       d="m 306.495,63.779 c -2.934,0 -5.314,2.38 -5.314,5.315 0,0.624 0,1.771 0,1.771 l 0,0 0,3.543 3.543,0 0,0 c 0,0 1.148,0.001 1.771,0.001 2.938,0 5.316,-2.381 5.316,-5.315 0,-2.935 -2.379,-5.315 -5.316,-5.315 z" /><path
       style="fill:#49ace2"
       id="path23"
       d="m 338.385,37.205 0,11.003 c 0.68,1.56 1.178,3.216 1.471,4.942 l 14.293,0 14.355,0 -15.246,-5.082 c -1.158,-4.641 -3.227,-8.922 -6.014,-12.635 l 0,-7.086 -7.088,0 c -3.711,-2.789 -7.992,-4.854 -12.633,-6.014 l -5.082,-15.247 0,14.356 -0.002,0 0,14.291 c 1.727,0.293 3.385,0.791 4.943,1.471 l 11.003,0 z" /><path
       style="fill:#fdc107"
       id="path25"
       d="m 297.637,28.348 -7.086,0 0,7.085 c -2.789,3.713 -4.855,7.995 -6.016,12.636 l -15.245,5.082 14.356,0 14.293,0 c 0.293,-1.727 0.789,-3.383 1.469,-4.941 l 0,-11.005 11.002,0 c 1.561,-0.68 3.217,-1.178 4.943,-1.471 l 0,-7.388 0,0 0,-21.259 -5.082,15.245 c -4.64,1.16 -8.921,3.227 -12.634,6.016 z" /><path
       style="fill:#e83d6a"
       id="path27"
       d="m 338.385,65.178 0,11.005 -11.004,0 c -1.559,0.68 -3.215,1.177 -4.941,1.47 l 0,14.297 c 16.74,-1.662 30.053,-14.973 31.715,-31.713 l -14.299,0 c -0.293,1.725 -0.791,3.381 -1.471,4.941 z" /><path
       style="fill:#8abd24"
       id="path29"
       d="m 299.409,76.183 0,-11.006 c -0.68,-1.56 -1.176,-3.215 -1.469,-4.94 l -14.299,0 c 1.662,16.74 14.975,30.051 31.713,31.713 l 0,-14.298 c -1.725,-0.293 -3.381,-0.79 -4.939,-1.47 l -11.006,0 z" /><g
       id="g31"><path
         style="fill:#3c3c3b"
         id="path33"
         d="m 410.847,77.953 c -10.531,0 -19.251,-7.666 -20.941,-17.717 l -14.316,0 c 1.778,17.905 16.884,31.89 35.257,31.89 l 14.174,0 7.262,0 0,-14.173 -7.262,0 -14.174,0 z" /><path
         style="fill:#3c3c3b"
         id="path35"
         d="m 425.021,21.26 -14.174,0 c -18.374,0 -33.479,13.985 -35.257,31.891 l 14.315,0 c 1.69,-10.051 10.41,-17.717 20.941,-17.717 l 14.174,-10e-4 0,10e-4 7.262,0 0,-14.174 -7.261,0 z" /></g><path
       style="fill:#3c3c3b"
       id="path37"
       d="m 49.607,21.26 c -2.03,0 -4.65,0 -7.087,0 l 0,14.174 7.087,0 0,0 c 7.827,0 14.173,6.346 14.173,14.173 0,7.828 -6.346,14.174 -14.173,14.174 l 0,-10e-4 -0.02,0 -7.067,0 -7.086,0 0,0 0,-7.087 0,0 0,-7.076 c 0,-0.003 0,-0.007 0,-0.01 0,-0.003 0,-0.007 0,-0.01 l 0,-28.336 -14.174,0 0,28.346 0,14.173 0,14.174 0,14.174 14.173,0 0,-14.175 14.173,0 0,0 c 15.655,0 28.346,-12.691 28.346,-28.347 0,-15.656 -12.69,-28.346 -28.345,-28.346 z" /></g><g
     transform="translate(-21.26,-7.086)"
     style="display:none"
     display="none"
     id="grids"><rect
       style="display:inline;fill:none;stroke:#3c3c3b;stroke-width:0.25;stroke-miterlimit:10;stroke-dasharray:2"
       id="rect40"
       height="70.865997"
       width="63.779999"
       stroke-miterlimit="10"
       display="inline"
       y="21.26"
       x="21.26" /><circle
       style="display:inline;fill:none;stroke:#3c3c3b;stroke-width:0.25;stroke-miterlimit:10;stroke-dasharray:2"
       id="circle42"
       r="14.173"
       cy="49.605999"
       cx="49.605999"
       stroke-miterlimit="10"
       display="inline" /><circle
       style="display:inline;fill:none;stroke:#3c3c3b;stroke-width:0.25;stroke-miterlimit:10;stroke-dasharray:2"
       id="circle44"
       r="28.347"
       cy="49.605999"
       cx="49.605999"
       stroke-miterlimit="10"
       display="inline" /><rect
       style="display:inline;fill:none;stroke:#3c3c3b;stroke-width:0.25;stroke-miterlimit:10;stroke-dasharray:2"
       id="rect46"
       height="70.865997"
       width="63.779999"
       stroke-miterlimit="10"
       display="inline"
       y="21.26"
       x="85.040001" /><circle
       style="display:inline;fill:none;stroke:#3c3c3b;stroke-width:0.25;stroke-miterlimit:10;stroke-dasharray:2"
       id="circle48"
       r="14.173"
       cy="49.605999"
       cx="113.386"
       stroke-miterlimit="10"
       display="inline" /><circle
       style="display:inline;fill:none;stroke:#3c3c3b;stroke-width:0.25;stroke-miterlimit:10;stroke-dasharray:2"
       id="circle50"
       r="28.347"
       cy="49.605999"
       cx="113.386"
       stroke-miterlimit="10"
       display="inline" /><rect
       style="display:inline;fill:none;stroke:#3c3c3b;stroke-width:0.25;stroke-miterlimit:10;stroke-dasharray:2"
       id="rect52"
       height="70.865997"
       width="70.865997"
       stroke-miterlimit="10"
       display="inline"
       y="21.26"
       x="148.819" /><circle
       style="display:inline;fill:none;stroke:#3c3c3b;stroke-width:0.25;stroke-miterlimit:10;stroke-dasharray:2"
       id="circle54"
       r="21.26"
       cy="56.691002"
       cx="184.25301"
       stroke-miterlimit="10"
       display="inline" /><circle
       style="display:inline;fill:none;stroke:#3c3c3b;stroke-width:0.25;stroke-miterlimit:10;stroke-dasharray:2"
       id="circle56"
       r="35.432999"
       cy="56.693001"
       cx="184.252"
       stroke-miterlimit="10"
       display="inline" /><rect
       style="display:inline;fill:none;stroke:#3c3c3b;stroke-width:0.25;stroke-miterlimit:10;stroke-dasharray:2"
       id="rect58"
       height="70.865997"
       width="70.866997"
       stroke-miterlimit="10"
       display="inline"
       y="21.26"
       x="283.465" /><circle
       style="display:inline;fill:none;stroke:#3c3c3b;stroke-width:0.25;stroke-miterlimit:10;stroke-dasharray:2"
       id="circle60"
       r="21.26"
       cy="56.691002"
       cx="318.89899"
       stroke-miterlimit="10"
       display="inline" /><circle
       style="display:inline;fill:none;stroke:#3c3c3b;stroke-width:0.25;stroke-miterlimit:10;stroke-dasharray:2"
       id="circle62"
       r="35.433998"
       cy="56.693001"
       cx="318.89899"
       stroke-miterlimit="10"
       display="inline" /><rect
       style="display:inline;fill:none;stroke:#ea5b0c;stroke-width:0.25;stroke-miterlimit:10;stroke-dasharray:2"
       id="rect64"
       height="70.865997"
       width="70.866997"
       stroke-miterlimit="10"
       display="inline"
       y="-333.07101"
       x="233.858" /><circle
       style="display:inline;fill:none;stroke:#575756;stroke-width:0.25;stroke-miterlimit:10;stroke-dasharray:2"
       id="circle66"
       r="21.26"
       cy="-297.63901"
       cx="269.29199"
       stroke-miterlimit="10"
       display="inline" /><circle
       style="display:inline;fill:none;stroke:#575756;stroke-width:0.25;stroke-miterlimit:10;stroke-dasharray:2"
       id="circle68"
       r="35.432999"
       cy="-297.63699"
       cx="269.29199"
       stroke-miterlimit="10"
       display="inline" /><rect
       style="display:inline;fill:none;stroke:#3c3c3b;stroke-width:0.25;stroke-miterlimit:10;stroke-dasharray:2"
       id="rect70"
       height="70.865997"
       width="70.866997"
       stroke-miterlimit="10"
       display="inline"
       y="21.26"
       x="375.59201" /><circle
       style="display:inline;fill:none;stroke:#3c3c3b;stroke-width:0.25;stroke-miterlimit:10;stroke-dasharray:2"
       id="circle72"
       r="21.26"
       cy="56.691002"
       cx="411.026"
       stroke-miterlimit="10"
       display="inline" /><circle
       style="display:inline;fill:none;stroke:#3c3c3b;stroke-width:0.25;stroke-miterlimit:10;stroke-dasharray:2"
       id="circle74"
       r="35.433998"
       cy="56.692001"
       cx="411.02399"
       stroke-miterlimit="10"
       display="inline" /><rect
       style="display:inline;fill:none;stroke:#3c3c3b;stroke-width:0.25;stroke-miterlimit:10;stroke-dasharray:2"
       id="rect76"
       height="70.865997"
       width="42.519001"
       stroke-miterlimit="10"
       display="inline"
       y="21.26"
       x="226.77299" /><circle
       style="display:inline;fill:none;stroke:#3c3c3b;stroke-width:0.25;stroke-miterlimit:10;stroke-dasharray:2"
       id="circle78"
       r="7.086"
       cy="42.519001"
       cx="248.032"
       stroke-miterlimit="10"
       display="inline" /><circle
       style="display:inline;fill:none;stroke:#3c3c3b;stroke-width:0.25;stroke-miterlimit:10;stroke-dasharray:2"
       id="circle80"
       r="21.26"
       cy="42.52"
       cx="248.032"
       stroke-miterlimit="10"
       display="inline" /><path
       style="display:inline;fill:none;stroke:#3c3c3b;stroke-width:0.25;stroke-miterlimit:10;stroke-dasharray:2"
       id="path82"
       d="m 255.119,70.865 c 0,3.914 -3.175,7.088 -7.088,7.088 -3.913,0 -7.084,-3.174 -7.084,-7.088 0,-3.911 3.171,-7.085 7.084,-7.085 3.913,0 7.088,3.174 7.088,7.085 z"
       stroke-miterlimit="10"
       display="inline" /><circle
       style="display:inline;fill:none;stroke:#3c3c3b;stroke-width:0.25;stroke-miterlimit:10;stroke-dasharray:2"
       id="circle84"
       r="21.26"
       cy="70.865997"
       cx="248.032"
       stroke-miterlimit="10"
       display="inline" /><line
       style="display:inline;fill:none;stroke:#3c3c3b;stroke-width:0.25;stroke-miterlimit:10;stroke-dasharray:2"
       id="line86"
       y2="56.693001"
       x2="481.89001"
       y1="56.693001"
       x1="7.0869999"
       stroke-miterlimit="10"
       display="inline" /><line
       style="display:inline;fill:none;stroke:#575756;stroke-width:0.25;stroke-miterlimit:10;stroke-dasharray:2"
       id="line88"
       y2="-301.181"
       x2="318.89801"
       y1="-301.181"
       x1="219.685"
       stroke-miterlimit="10"
       display="inline" /><line
       style="display:inline;fill:none;stroke:#575756;stroke-width:0.25;stroke-miterlimit:10;stroke-dasharray:2"
       id="line90"
       y2="-248.03101"
       x2="265.74899"
       y1="-347.24399"
       x1="265.74899"
       stroke-miterlimit="10"
       display="inline" /><circle
       style="display:inline;fill:none;stroke:#575756;stroke-width:0.25;stroke-miterlimit:10;stroke-dasharray:2"
       id="circle92"
       r="5.3150001"
       cy="-310.039"
       cx="256.89001"
       stroke-miterlimit="10"
       display="inline" /><rect
       style="display:inline;fill:none;stroke:#575756;stroke-width:0.25;stroke-miterlimit:10;stroke-dasharray:2"
       id="rect94"
       height="7.0869999"
       width="7.086"
       stroke-miterlimit="10"
       display="inline"
       y="-325.98401"
       x="240.94501" /><rect
       style="display:inline;fill:none;stroke:#575756;stroke-width:0.25;stroke-miterlimit:10;stroke-dasharray:2"
       id="rect96"
       height="7.0869999"
       width="7.0869999"
       stroke-miterlimit="10"
       display="inline"
       y="-325.98401"
       x="290.55099" /><rect
       style="display:inline;fill:none;stroke:#575756;stroke-width:0.25;stroke-miterlimit:10;stroke-dasharray:2"
       id="rect98"
       height="7.086"
       width="7.0869999"
       stroke-miterlimit="10"
       display="inline"
       y="-276.37701"
       x="290.55099" /><rect
       style="display:inline;fill:none;stroke:#575756;stroke-width:0.25;stroke-miterlimit:10;stroke-dasharray:2"
       id="rect100"
       height="7.086"
       width="7.086"
       stroke-miterlimit="10"
       display="inline"
       y="-276.37701"
       x="240.94501" /><line
       style="display:inline;fill:none;stroke:#575756;stroke-width:0.25;stroke-miterlimit:10;stroke-dasharray:2"
       id="line102"
       y2="-248.03101"
       x2="272.83499"
       y1="-347.24399"
       x1="272.83499"
       stroke-miterlimit="10"
       display="inline" /><line
       style="display:inline;fill:none;stroke:#36a9e1;stroke-width:0.25;stroke-miterlimit:10;stroke-dasharray:2"
       id="line104"
       y2="-248.03101"
       x2="269.29199"
       y1="-347.24399"
       x1="269.29199"
       stroke-miterlimit="10"
       display="inline" /><line
       style="display:inline;fill:none;stroke:#575756;stroke-width:0.25;stroke-miterlimit:10;stroke-dasharray:2"
       id="line106"
       y2="-294.09399"
       x2="318.89801"
       y1="-294.09399"
       x1="219.685"
       stroke-miterlimit="10"
       display="inline" /><line
       style="display:inline;fill:none;stroke:#36a9e1;stroke-width:0.25;stroke-miterlimit:10;stroke-dasharray:2"
       id="line108"
       y2="-297.63699"
       x2="318.89801"
       y1="-297.63699"
       x1="219.685"
       stroke-miterlimit="10"
       display="inline" /><rect
       style="display:inline;fill:none;stroke:#575756;stroke-width:0.25;stroke-miterlimit:10;stroke-dasharray:2"
       id="rect110"
       height="3.543"
       width="3.543"
       stroke-miterlimit="10"
       display="inline"
       y="-315.354"
       x="251.575" /><circle
       style="display:inline;fill:none;stroke:#575756;stroke-width:0.25;stroke-miterlimit:10;stroke-dasharray:2"
       id="circle112"
       r="5.3150001"
       cy="-310.039"
       cx="281.694"
       stroke-miterlimit="10"
       display="inline" /><rect
       style="display:inline;fill:none;stroke:#575756;stroke-width:0.25;stroke-miterlimit:10;stroke-dasharray:2"
       id="rect114"
       height="3.543"
       width="3.543"
       stroke-miterlimit="10"
       display="inline"
       y="-315.354"
       x="283.466" /><circle
       style="display:inline;fill:none;stroke:#575756;stroke-width:0.25;stroke-miterlimit:10;stroke-dasharray:2"
       id="circle116"
       r="5.3150001"
       cy="-285.23599"
       cx="281.694"
       stroke-miterlimit="10"
       display="inline" /><rect
       style="display:inline;fill:none;stroke:#575756;stroke-width:0.25;stroke-miterlimit:10;stroke-dasharray:2"
       id="rect118"
       height="3.543"
       width="3.5439999"
       stroke-miterlimit="10"
       display="inline"
       y="-283.46399"
       x="283.465" /><circle
       style="display:inline;fill:none;stroke:#575756;stroke-width:0.25;stroke-miterlimit:10;stroke-dasharray:2"
       id="circle120"
       r="5.3150001"
       cy="-285.23599"
       cx="256.89001"
       stroke-miterlimit="10"
       display="inline" /><rect
       style="display:inline;fill:none;stroke:#575756;stroke-width:0.25;stroke-miterlimit:10;stroke-dasharray:2"
       id="rect122"
       height="3.543"
       width="3.543"
       stroke-miterlimit="10"
       display="inline"
       y="-283.46399"
       x="251.575" /><rect
       style="display:inline;fill:none;stroke:#ea5b0c;stroke-width:0.25;stroke-miterlimit:10;stroke-dasharray:2"
       id="rect124"
       height="38.977001"
       width="38.977001"
       stroke-miterlimit="10"
       display="inline"
       y="-317.125"
       x="249.80299" /></g><g
     transform="translate(-21.26,-7.086)"
     style="display:none"
     display="none"
     id="Layer_4"><line
       style="display:inline;fill:none;stroke:#3c3c3b;stroke-width:0.25;stroke-miterlimit:10;stroke-dasharray:2"
       id="line127"
       y2="106.3"
       x2="77.953003"
       y1="7.0869999"
       x1="77.953003"
       stroke-miterlimit="10"
       display="inline" /><line
       style="display:inline;fill:none;stroke:#3c3c3b;stroke-width:0.25;stroke-miterlimit:10;stroke-dasharray:2"
       id="line129"
       y2="106.3"
       x2="85.040001"
       y1="7.0869999"
       x1="85.040001"
       stroke-miterlimit="10"
       display="inline" /><line
       style="display:inline;fill:none;stroke:#3c3c3b;stroke-width:0.25;stroke-miterlimit:10;stroke-dasharray:2"
       id="line131"
       y2="106.3"
       x2="141.73199"
       y1="7.0869999"
       x1="141.73199"
       stroke-miterlimit="10"
       display="inline" /><line
       style="display:inline;fill:none;stroke:#3c3c3b;stroke-width:0.25;stroke-miterlimit:10;stroke-dasharray:2"
       id="line133"
       y2="106.3"
       x2="148.819"
       y1="7.0869999"
       x1="148.819"
       stroke-miterlimit="10"
       display="inline" /><line
       style="display:inline;fill:none;stroke:#3c3c3b;stroke-width:0.25;stroke-miterlimit:10;stroke-dasharray:2"
       id="line135"
       y2="106.299"
       x2="219.685"
       y1="7.086"
       x1="219.685"
       stroke-miterlimit="10"
       display="inline" /><line
       style="display:inline;fill:none;stroke:#3c3c3b;stroke-width:0.25;stroke-miterlimit:10;stroke-dasharray:2"
       id="line137"
       y2="106.299"
       x2="226.772"
       y1="7.086"
       x1="226.772"
       stroke-miterlimit="10"
       display="inline" /><line
       style="display:inline;fill:none;stroke:#3c3c3b;stroke-width:0.25;stroke-miterlimit:10;stroke-dasharray:2"
       id="line139"
       y2="106.3"
       x2="269.29199"
       y1="7.0869999"
       x1="269.29199"
       stroke-miterlimit="10"
       display="inline" /><line
       style="display:inline;fill:none;stroke:#3c3c3b;stroke-width:0.25;stroke-miterlimit:10;stroke-dasharray:2"
       id="line141"
       y2="106.3"
       x2="276.37799"
       y1="7.0869999"
       x1="276.37799"
       stroke-miterlimit="10"
       display="inline" /><line
       style="display:inline;fill:none;stroke:#3c3c3b;stroke-width:0.25;stroke-miterlimit:10;stroke-dasharray:2"
       id="line143"
       y2="106.3"
       x2="361.41699"
       y1="7.0869999"
       x1="361.41699"
       stroke-miterlimit="10"
       display="inline" /><line
       style="display:inline;fill:none;stroke:#3c3c3b;stroke-width:0.25;stroke-miterlimit:10;stroke-dasharray:2"
       id="line145"
       y2="106.3"
       x2="368.504"
       y1="7.0869999"
       x1="368.504"
       stroke-miterlimit="10"
       display="inline" /><line
       style="display:inline;fill:none;stroke:#3c3c3b;stroke-width:0.25;stroke-miterlimit:10;stroke-dasharray:2"
       id="line147"
       y2="106.3"
       x2="432.284"
       y1="7.0869999"
       x1="432.284"
       stroke-miterlimit="10"
       display="inline" /></g></svg>